<svg xmlns="http://www.w3.org/2000/svg" viewBox="0 0 960 540" width="960" height="540">
  <defs>
    <!-- Blob glows -->
    <radialGradient id="g1" cx="25%" cy="35%" r="50%">
      <stop offset="0%" stop-color="#7b9eb8" stop-opacity="0.18"/>
      <stop offset="100%" stop-color="#7b9eb8" stop-opacity="0"/>
    </radialGradient>
    <radialGradient id="g2" cx="75%" cy="25%" r="45%">
      <stop offset="0%" stop-color="#9a8ab8" stop-opacity="0.14"/>
      <stop offset="100%" stop-color="#9a8ab8" stop-opacity="0"/>
    </radialGradient>
    <radialGradient id="g3" cx="20%" cy="80%" r="45%">
      <stop offset="0%" stop-color="#7aa68a" stop-opacity="0.12"/>
      <stop offset="100%" stop-color="#7aa68a" stop-opacity="0"/>
    </radialGradient>
    <radialGradient id="g4" cx="80%" cy="75%" r="40%">
      <stop offset="0%" stop-color="#b8899a" stop-opacity="0.11"/>
      <stop offset="100%" stop-color="#b8899a" stop-opacity="0"/>
    </radialGradient>
  </defs>

  <!-- Background -->
  <rect width="960" height="540" fill="#0c0c0b" rx="0"/>

  <!-- Ambient colour blobs -->
  <rect width="960" height="540" fill="url(#g1)"/>
  <rect width="960" height="540" fill="url(#g2)"/>
  <rect width="960" height="540" fill="url(#g3)"/>
  <rect width="960" height="540" fill="url(#g4)"/>



  <!-- Mark — centred left, scaled to 140px -->
  <g transform="translate(88, 190) scale(0.149)">
    <path d="M 385.49 446.97 C369.67,448.11 350.65,448.11 341.00,446.96 C293.77,441.35 256.46,402.82 252.02,355.08 C248.85,320.92 260.05,289.63 283.53,267.09 C308.57,243.05 338.37,233.68 376.03,237.99 C397.49,240.45 421.76,253.54 436.63,270.66 C452.19,288.57 461.28,311.07 461.43,332.00 C461.51,343.45 460.63,346.23 455.19,351.64 C449.64,357.19 443.49,359.40 433.50,359.44 C421.16,359.49 412.19,357.06 389.28,347.42 C387.51,346.67 383.13,345.52 379.56,344.86 C366.14,342.39 357.00,348.99 357.00,361.15 C357.00,366.68 359.05,370.92 363.78,375.19 C370.56,381.31 373.02,381.62 398.35,379.67 C428.03,377.38 435.49,378.56 443.78,386.85 C449.58,392.65 451.42,398.03 451.35,409.03 C451.30,416.57 450.84,419.59 449.09,423.53 C446.66,429.03 442.01,434.38 437.67,436.65 C428.97,441.21 408.05,445.35 385.49,446.97 Z" fill="#7b9eb8"/>
    <path d="M 619.98 444.45 C614.56,445.96 606.65,447.32 601.50,447.61 C593.41,448.07 591.98,447.88 587.43,445.69 C576.60,440.50 572.49,431.65 573.22,415.12 C573.71,403.98 574.65,400.62 584.43,375.24 C590.45,359.62 589.15,350.39 580.08,344.27 C571.92,338.78 559.33,343.67 553.76,354.49 C551.84,358.24 551.77,359.37 552.59,372.49 C553.07,380.20 553.47,392.80 553.48,400.50 C553.49,413.08 553.25,415.03 551.13,419.73 C544.83,433.70 528.51,439.49 510.84,434.03 C499.72,430.60 494.57,423.30 490.52,405.21 C483.88,375.55 483.42,329.59 489.54,308.47 C494.21,292.35 505.42,274.09 517.07,263.62 C529.08,252.82 545.01,244.12 560.67,239.80 C567.49,237.92 571.07,237.64 588.50,237.65 C607.34,237.66 609.02,237.82 617.50,240.37 C648.11,249.58 671.72,269.54 685.09,297.50 C693.62,315.35 697.27,336.17 695.11,354.72 C690.03,398.43 661.12,432.96 619.98,444.45 Z" fill="#9a8ab8"/>
    <path d="M 385.50 678.66 C378.65,680.48 373.04,681.15 362.00,681.48 C346.99,681.92 342.26,681.42 329.54,678.01 C295.01,668.76 264.37,638.03 255.14,603.40 C249.04,580.50 250.83,552.20 259.63,532.29 C273.61,500.68 302.09,477.76 334.00,472.43 C350.63,469.65 359.57,470.81 365.95,476.57 C372.10,482.13 374.36,488.62 374.30,500.50 C374.24,511.55 373.01,516.18 364.22,538.50 C360.06,549.07 359.50,551.40 359.50,558.08 C359.50,564.89 359.79,566.04 362.38,569.43 C369.41,578.65 381.68,578.04 390.23,568.04 C395.69,561.67 396.34,556.71 394.41,536.49 C391.82,509.50 393.71,497.52 401.74,489.82 C408.14,483.69 411.09,482.72 423.47,482.68 C432.84,482.65 435.29,482.99 439.74,484.94 C450.69,489.74 455.10,498.97 459.12,525.50 C461.03,538.13 461.40,544.69 461.45,567.00 C461.50,594.27 461.13,597.90 456.88,611.97 C450.50,633.11 435.40,652.60 415.22,665.76 C405.56,672.07 397.96,675.36 385.50,678.66 Z" fill="#7aa68a"/>
    <path d="M 615.03 678.45 C606.64,680.66 601.87,681.27 591.03,681.52 C583.59,681.70 576.15,681.64 574.50,681.40 C527.26,674.45 491.38,638.86 486.01,593.65 C484.57,581.52 485.33,575.45 489.01,569.65 C494.69,560.69 506.59,557.01 523.00,559.14 C530.79,560.15 536.66,561.92 559.50,570.17 C569.18,573.67 578.17,573.74 582.74,570.36 C595.09,561.21 591.43,542.50 576.39,538.00 C571.92,536.66 563.05,536.94 542.69,539.05 C532.43,540.12 528.46,540.14 522.78,539.17 C510.08,536.99 502.07,531.91 497.96,523.42 C496.02,519.42 495.83,517.68 496.19,507.22 C496.62,494.41 498.04,490.13 503.66,484.80 C512.39,476.51 544.66,470.99 584.19,471.01 C610.31,471.02 622.68,473.29 638.55,480.98 C676.94,499.56 700.17,542.44 695.04,585.22 C691.83,611.93 682.43,631.63 664.06,650.13 C649.30,665.01 635.20,673.15 615.03,678.45 Z" fill="#b8899a"/>
  </g>

  <!-- Wordmark -->
  <text x="260" y="294"
    font-family="Syne, sans-serif"
    font-weight="700"
    font-size="96"
    letter-spacing="-3"
    fill="#edecea">Cascade</text>

  <!-- Subline -->
  <text x="262" y="336"
    font-family="'JetBrains Mono', monospace"
    font-weight="400"
    font-size="16"
    letter-spacing="4"
    fill="#4a4946">BY AFTORA SYSTEMS</text>

  <!-- Divider line -->
  <line x1="260" y1="356" x2="900" y2="356" stroke="rgba(255,255,255,0.07)" stroke-width="1"/>

  <!-- Four colour dots — below divider -->
  <circle cx="262" cy="386" r="5" fill="#7b9eb8"/>
  <circle cx="278" cy="386" r="5" fill="#9a8ab8"/>
  <circle cx="294" cy="386" r="5" fill="#7aa68a"/>
  <circle cx="310" cy="386" r="5" fill="#b8899a"/>

  <!-- Tagline -->
  <text x="330" y="391"
    font-family="'JetBrains Mono', monospace"
    font-weight="400"
    font-size="12"
    letter-spacing="2.5"
    fill="#4a4946">YOUR PANEL. YOUR PALETTE.</text>

  <!-- Bottom status line -->
  <text x="262" y="490"
    font-family="'JetBrains Mono', monospace"
    font-weight="400"
    font-size="11"
    letter-spacing="2"
    fill="#2e2e2c">COMING SOON · GETCASCADE.COM · BY AFTORA</text>

</svg>
